<svg id="svg" xmlns="http://www.w3.org/2000/svg" xmlns:xlink="http://www.w3.org/1999/xlink" viewBox="0, 0, 400, 400"><g id="svgg"><path id="path0" d="M112.258 60.895 C 64.215 83.377,24.859 101.924,24.800 102.110 C 24.740 102.296,44.370 109.236,68.421 117.532 C 92.472 125.828,112.303 132.674,112.490 132.746 C 112.678 132.818,112.831 128.134,112.831 122.334 L 112.831 111.792 115.387 108.807 C 140.326 79.697,194.067 67.049,237.236 80.131 C 256.469 85.959,275.655 97.559,285.261 109.168 L 287.365 111.712 287.561 122.225 L 287.757 132.738 298.883 127.681 C 305.002 124.900,310.070 122.625,310.146 122.625 C 310.222 122.625,310.284 130.198,310.284 139.453 L 310.284 156.282 311.753 156.534 C 312.561 156.672,314.335 157.033,315.695 157.335 C 317.055 157.637,318.422 157.884,318.731 157.884 C 319.214 157.884,319.295 155.052,319.295 138.150 L 319.295 118.416 347.338 110.432 C 362.762 106.041,375.411 102.305,375.448 102.129 C 375.522 101.774,200.859 19.969,200.092 20.000 C 199.826 20.010,160.301 38.413,112.258 60.895 M192.948 83.465 C 166.186 84.874,141.678 94.807,124.486 111.213 L 121.450 114.110 121.450 134.626 L 121.450 155.142 200.196 155.142 L 278.942 155.142 278.942 134.624 L 278.942 114.105 276.027 111.336 C 261.289 97.337,240.966 87.833,218.860 84.602 C 214.317 83.939,201.040 82.950,199.021 83.126 C 198.697 83.154,195.965 83.306,192.948 83.465 M100.979 163.786 C 41.139 167.384,-4.481 220.218,0.361 280.313 C 4.480 331.422,41.129 370.944,92.198 379.347 L 97.356 380.196 196.474 380.330 C 268.328 380.427,297.101 380.340,301.077 380.016 C 351.023 375.946,390.852 338.934,399.094 288.932 C 400.239 281.982,400.130 260.565,398.914 253.870 C 389.660 202.902,349.496 166.902,298.374 163.754 C 291.295 163.318,108.267 163.348,100.979 163.786 M305.583 192.496 C 345.452 199.258,372.705 231.031,372.675 270.715 C 372.644 310.568,344.954 342.639,305.121 348.954 C 298.223 350.048,102.157 350.043,95.201 348.949 C 60.454 343.483,34.268 317.935,28.644 284.012 C 20.855 237.036,54.429 194.880,102.057 191.833 C 111.302 191.242,301.846 191.862,305.583 192.496 M279.432 216.472 C 262.133 221.130,263.542 246.102,281.280 249.227 C 294.368 251.532,304.784 237.252,298.818 225.182 C 295.252 217.965,287.246 214.368,279.432 216.472 M104.212 220.021 C 95.023 222.479,92.699 226.853,92.534 241.995 L 92.414 253.039 81.760 253.160 C 71.187 253.280,71.090 253.289,68.905 254.313 C 57.298 259.756,55.264 276.747,65.174 285.471 C 69.022 288.858,69.291 288.917,81.587 289.053 L 92.458 289.174 92.458 297.699 C 92.458 307.210,92.741 308.871,94.911 312.091 C 101.750 322.243,117.726 321.283,123.244 310.388 L 124.388 308.129 124.511 298.651 L 124.634 289.173 135.480 289.053 L 146.327 288.932 148.520 287.856 C 158.980 282.719,161.618 267.145,153.517 258.357 C 149.107 253.573,147.351 253.085,134.525 253.085 L 124.628 253.085 124.508 241.822 C 124.391 230.841,124.364 230.511,123.448 228.665 C 119.979 221.676,111.785 217.994,104.212 220.021 M243.090 252.201 C 234.168 255.384,229.581 264.296,232.312 273.139 C 237.521 290.005,262.158 288.102,264.879 270.624 C 266.754 258.577,254.429 248.156,243.090 252.201 M313.810 252.298 C 296.094 258.835,300.463 284.623,319.287 284.623 C 341.262 284.623,341.881 252.244,319.918 251.616 C 316.717 251.525,315.555 251.655,313.810 252.298 M280.789 287.168 C 263.724 290.195,262.379 314.562,278.991 319.732 C 294.132 324.444,306.556 307.089,297.483 293.903 C 294.049 288.913,286.995 286.067,280.789 287.168 " stroke="none"></path></g></svg>